<svg width="32" height="26" viewBox="0 0 32 26" fill="none" xmlns="http://www.w3.org/2000/svg">
<rect width="32" height="26" rx="3" fill="#FFEAE1"/>
<path fill-rule="evenodd" clip-rule="evenodd" d="M16.0446 12.6276L20.4643 8.17255V10.5126H22.25V5.1125H16.8929V6.91253H19.2143L16.067 10.0851L11.0223 5L9.75 6.28252L16.0446 12.6276ZM21.1897 14.2362C19.4859 13.5237 17.756 13.1675 16 13.1675C14.244 13.1675 12.5104 13.5237 10.7991 14.2362C9.0878 14.9488 7.57738 16.0175 6.26786 17.4425C6.08929 17.6226 6 17.8326 6 18.0726C6 18.3126 6.08929 18.5226 6.26786 18.7026L8.32143 20.7276C8.48512 20.8926 8.67485 20.9826 8.89062 20.9976C9.1064 21.0126 9.30357 20.9526 9.48214 20.8176L12.0938 18.8376C12.2128 18.7476 12.2984 18.6388 12.3504 18.5113C12.4025 18.3838 12.4286 18.2526 12.4286 18.1176V15.5525C12.994 15.3725 13.5744 15.23 14.1696 15.125C14.7649 15.02 15.375 14.9675 16 14.9675C16.625 14.9675 17.2351 15.02 17.8304 15.125C18.4256 15.23 19.006 15.3725 19.5714 15.5525V18.1176C19.5714 18.2526 19.6012 18.3838 19.6607 18.5113C19.7202 18.6388 19.8095 18.7476 19.9286 18.8376L22.5179 20.8176C22.6964 20.9526 22.8936 21.0126 23.1094 20.9976C23.3251 20.9826 23.5149 20.8926 23.6786 20.7276L25.7321 18.7026C25.9107 18.5226 26 18.3126 26 18.0726C26 17.8326 25.9107 17.6226 25.7321 17.4425C24.4077 16.0175 22.8936 14.9488 21.1897 14.2362ZM9.39286 16.9588C9.79464 16.6663 10.2113 16.4075 10.6429 16.1825V17.5776L9.03571 18.8376L8.14286 17.9376C8.5744 17.5775 8.99107 17.2513 9.39286 16.9588ZM21.3571 17.5776V16.2275C21.7887 16.4375 22.2054 16.685 22.6071 16.97C23.0089 17.255 23.4256 17.5926 23.8571 17.9826L22.9643 18.8376L21.3571 17.5776Z" fill="#FF6623"/>
</svg>
