<svg width="27" height="20" viewBox="0 0 27 20" fill="none" xmlns="http://www.w3.org/2000/svg">
<path d="M12.2051 15.7143L15.9829 12L19.7607 15.7143L21.7949 13.7143L18.0171 10L21.7949 6.28571L19.7607 4.28571L15.9829 8L12.2051 4.28571L10.1709 6.28571L13.9487 10L10.1709 13.7143L12.2051 15.7143ZM0 10L6.32051 1.21429C6.58689 0.833333 6.93198 0.535714 7.35577 0.321429C7.77956 0.107143 8.23362 0 8.71795 0H23.2479C24.047 0 24.7311 0.279762 25.3002 0.839286C25.8693 1.39881 26.1538 2.07143 26.1538 2.85714V17.1429C26.1538 17.9286 25.8693 18.6012 25.3002 19.1607C24.7311 19.7202 24.047 20 23.2479 20H8.71795C8.23362 20 7.77956 19.8929 7.35577 19.6786C6.93198 19.4643 6.58689 19.1667 6.32051 18.7857L0 10ZM3.55983 10L8.71795 17.1429H23.2479V2.85714H8.71795L3.55983 10Z" fill="#414941"/>
</svg>
