<svg width="22" height="18" viewBox="0 0 22 18" fill="none" xmlns="http://www.w3.org/2000/svg">
<path d="M17.6 10.125V7.875H22V10.125H17.6ZM18.92 18L15.4 15.3L16.72 13.5L20.24 16.2L18.92 18ZM16.72 4.5L15.4 2.7L18.92 0L20.24 1.8L16.72 4.5ZM3.3 16.875V12.375H2.2C1.595 12.375 1.07708 12.1547 0.64625 11.7141C0.215417 11.2734 0 10.7437 0 10.125V7.875C0 7.25625 0.215417 6.72656 0.64625 6.28594C1.07708 5.84531 1.595 5.625 2.2 5.625H6.6L12.1 2.25V15.75L6.6 12.375H5.5V16.875H3.3ZM13.2 12.7688V5.23125C13.695 5.68125 14.0938 6.22969 14.3963 6.87656C14.6988 7.52344 14.85 8.23125 14.85 9C14.85 9.76875 14.6988 10.4766 14.3963 11.1234C14.0938 11.7703 13.695 12.3188 13.2 12.7688ZM2.2 7.875V10.125H7.205L9.9 11.7562V6.24375L7.205 7.875H2.2Z" fill="#191C19"/>
</svg>
