<svg width="60" height="61" viewBox="0 0 60 61" fill="none" xmlns="http://www.w3.org/2000/svg">
<path opacity="0.6" d="M55.9366 1.99414H2.9966C1.34163 1.99414 0 3.33109 0 4.9803V57.7359C0 59.3851 1.34163 60.722 2.9966 60.722H55.9366C57.5916 60.722 58.9332 59.3851 58.9332 57.7359V4.9803C58.9332 3.33109 57.5916 1.99414 55.9366 1.99414Z" fill="#191C19"/>
<path d="M3.75069 0.722168H57.1402C57.8986 0.722168 58.626 1.02241 59.1623 1.55685C59.6987 2.09129 59.9999 2.81615 59.9999 3.57196V56.7755C59.9999 57.5313 59.6987 58.2561 59.1623 58.7906C58.626 59.325 57.8986 59.6252 57.1402 59.6252H3.75069C2.99241 59.6252 2.26517 59.3251 1.72889 58.7909C1.19261 58.2567 0.891195 57.5321 0.89093 56.7764L0.89093 3.57196C0.89093 2.81615 1.19223 2.09129 1.72853 1.55685C2.26484 1.02241 2.99223 0.722168 3.75069 0.722168Z" fill="#5FC5EB"/>
<mask id="mask0_189_10160" style="mask-type:luminance" maskUnits="userSpaceOnUse" x="0" y="0" width="60" height="60">
<path d="M56.9354 0.999023H3.99544C2.34047 0.999023 0.99884 2.33597 0.99884 3.98519V56.7408C0.99884 58.39 2.34047 59.7269 3.99544 59.7269H56.9354C58.5904 59.7269 59.9321 58.39 59.9321 56.7408V3.98519C59.9321 2.33597 58.5904 0.999023 56.9354 0.999023Z" fill="white"/>
</mask>
<g mask="url(#mask0_189_10160)">
<g opacity="0.16">
<path d="M0.64129 41.0177L14.5255 25.2031L22.6364 25.0457L31.3515 15.6553L37.1019 16.6725L40.2983 24.8885L50.254 28.5884L51.2529 34.4143L30.051 60.0376H0.635315L0.64129 41.0177Z" fill="#191C19"/>
</g>
</g>
<path d="M48.0676 27.2508L48.0426 27.2259L47.9916 27.1752C47.9667 27.1503 47.9407 27.1503 47.9157 27.0995C47.7136 26.9012 47.4925 26.7232 47.2555 26.568C45.8259 25.4637 44.0881 24.8277 42.2811 24.7474H41.2403C40.797 24.7475 40.3581 24.6606 39.9485 24.4916C39.539 24.3227 39.1668 24.0749 38.8534 23.7626C38.5399 23.4502 38.2913 23.0794 38.1218 22.6713C37.9522 22.2631 37.865 21.8257 37.8651 21.384V21.1063C37.7652 18.1201 35.6826 15.7451 33.0935 15.7451C30.4545 15.7431 28.3189 18.2216 28.3189 21.3073C28.3189 24.3672 30.4505 26.8716 33.0905 26.8716C33.4511 26.8709 33.8099 26.82 34.1563 26.7203C35.1971 26.5939 36.7194 26.4216 37.5065 26.4216C39.765 26.4216 40.0446 27.0537 40.0446 27.0537C39.4771 27.5529 38.9968 28.1425 38.6233 28.7986C38.4152 29.163 38.2368 29.5435 38.0899 29.9364V29.9612C38.0389 30.0608 37.6074 31.1497 36.8213 33.679C36.3139 35.3234 34.2322 35.2219 34.2322 35.2219H30.7332C28.4997 35.2219 27.5858 32.1362 27.5858 32.1113C26.2403 27.9127 22.8651 24.7773 18.7538 24.7773C13.6016 24.7773 9.43933 29.6328 9.43933 35.6021C9.43933 41.5715 13.6026 46.421 18.7548 46.421C20.207 46.3852 21.6288 45.9983 22.8976 45.2934C24.1665 44.5885 25.2444 43.5869 26.0385 42.3747C26.6814 41.4543 27.46 40.6359 28.3479 39.947C29.1011 39.3135 29.9602 38.8168 30.886 38.4798C31.4856 38.2504 32.1217 38.1304 32.7639 38.1254H36.7734C37.9519 38.1477 39.1051 38.4698 40.1236 39.0611C40.1236 39.0611 40.4232 39.2602 40.5301 39.3388C40.8511 39.5686 41.1905 39.7717 41.5449 39.946C42.3059 40.3084 43.1378 40.4984 43.9812 40.5024C47.5342 40.5024 50.4279 37.1639 50.4279 33.0161C50.4222 30.8618 49.5757 28.7943 48.0676 27.2508ZM32.5601 21.3073C32.5601 19.5873 33.4231 18.1968 34.4889 18.1968C35.5547 18.1968 36.4178 19.5903 36.4178 21.3073C36.4178 23.0244 35.5547 24.4179 34.4889 24.4179C33.3982 24.4179 32.5601 23.0264 32.5601 21.3073ZM22.1549 42.1468C20.0233 42.1468 18.2973 39.3647 18.2973 35.8997C18.2973 32.4348 20.0233 29.6527 22.1549 29.6527C24.2865 29.6527 26.0126 32.4348 26.0126 35.8997C26.0126 39.3647 24.2615 42.1468 22.1549 42.1468ZM45.91 37.1639C44.4886 37.1639 43.3209 35.2925 43.3209 32.9653C43.3209 30.6381 44.4886 28.7668 45.91 28.7668C47.3314 28.7668 48.4961 30.665 48.4961 32.9633C48.4961 35.2617 47.3314 37.1639 45.91 37.1639Z" fill="#191C19"/>
<path d="M49.0664 26.2557L49.0414 26.2308L48.9905 26.18C48.9655 26.1552 48.9395 26.1552 48.9146 26.1044C48.7125 25.9061 48.4913 25.7281 48.2543 25.5729C46.8247 24.4686 45.087 23.8326 43.2799 23.7523H42.2391C41.7959 23.7524 41.3569 23.6655 40.9474 23.4965C40.5378 23.3275 40.1657 23.0798 39.8522 22.7675C39.5388 22.4551 39.2902 22.0843 39.1206 21.6762C38.951 21.268 38.8638 20.8306 38.864 20.3889V20.1112C38.7641 17.125 36.6814 14.75 34.0924 14.75C31.4534 14.748 29.3178 17.2265 29.3178 20.3122C29.3178 23.3721 31.4494 25.8764 34.0894 25.8764C34.45 25.8758 34.8087 25.8249 35.1552 25.7251C36.196 25.5987 37.7183 25.4265 38.5054 25.4265C40.7638 25.4265 41.0435 26.0586 41.0435 26.0586C40.4759 26.5577 39.9956 27.1474 39.6221 27.8035C39.414 28.1679 39.2357 28.5484 39.0887 28.9412V28.9661C39.0378 29.0657 38.6062 30.1546 37.8201 32.6839C37.3127 34.3283 35.2311 34.2268 35.2311 34.2268H31.732C29.4986 34.2268 28.5846 31.1411 28.5846 31.1162C27.2391 26.9176 23.864 23.7822 19.7526 23.7822C14.6005 23.7822 10.4382 28.6377 10.4382 34.607C10.4382 40.5763 14.6015 45.4259 19.7536 45.4259C21.2059 45.3901 22.6276 45.0032 23.8965 44.2983C25.1653 43.5934 26.2432 42.5918 27.0374 41.3796C27.6802 40.4592 28.4588 39.6408 29.3467 38.9519C30.1 38.3184 30.9591 37.8217 31.8849 37.4847C32.4844 37.2553 33.1205 37.1353 33.7627 37.1303H37.7722C38.9507 37.1526 40.1039 37.4747 41.1224 38.066C41.1224 38.066 41.4221 38.265 41.5289 38.3437C41.8499 38.5735 42.1894 38.7765 42.5438 38.9509C43.3047 39.3133 44.1367 39.5033 44.98 39.5073C48.533 39.5073 51.4267 36.1688 51.4267 32.021C51.421 29.8667 50.5745 27.7991 49.0664 26.2557ZM33.559 20.3122C33.559 18.5922 34.422 17.2016 35.4878 17.2016C36.5536 17.2016 37.4166 18.5952 37.4166 20.3122C37.4166 22.0293 36.5536 23.4228 35.4878 23.4228C34.397 23.4228 33.559 22.0313 33.559 20.3122ZM23.1538 41.1517C21.0222 41.1517 19.2961 38.3696 19.2961 34.9046C19.2961 31.4397 21.0222 28.6576 23.1538 28.6576C25.2853 28.6576 27.0114 31.4397 27.0114 34.9046C27.0114 38.3696 25.2604 41.1517 23.1538 41.1517ZM46.9088 36.1688C45.4874 36.1688 44.3198 34.2974 44.3198 31.9702C44.3198 29.643 45.4874 27.7717 46.9088 27.7717C48.3302 27.7717 49.4949 29.6699 49.4949 31.9682C49.4949 34.2666 48.3302 36.1688 46.9088 36.1688Z" fill="white"/>
</svg>
