<svg width="24" height="24" viewBox="0 0 24 24" fill="none" xmlns="http://www.w3.org/2000/svg">
<path fill-rule="evenodd" clip-rule="evenodd" d="M5.33333 2.66667C5.33333 4.13942 4.13942 5.33333 2.66667 5.33333C1.19391 5.33333 0 4.13942 0 2.66667C0 1.19391 1.19391 0 2.66667 0C4.13942 0 5.33333 1.19391 5.33333 2.66667ZM14.6665 2.66667C14.6665 4.13942 13.4726 5.33333 11.9998 5.33333C10.5271 5.33333 9.33315 4.13942 9.33315 2.66667C9.33315 1.19391 10.5271 0 11.9998 0C13.4726 0 14.6665 1.19391 14.6665 2.66667ZM21.3328 5.33333C22.8055 5.33333 23.9994 4.13942 23.9994 2.66667C23.9994 1.19391 22.8055 0 21.3328 0C19.86 0 18.6661 1.19391 18.6661 2.66667C18.6661 4.13942 19.86 5.33333 21.3328 5.33333ZM5.33333 12C5.33333 13.4728 4.13942 14.6667 2.66667 14.6667C1.19391 14.6667 0 13.4728 0 12C0 10.5273 1.19391 9.33334 2.66667 9.33334C4.13942 9.33334 5.33333 10.5273 5.33333 12ZM11.9998 14.6667C13.4726 14.6667 14.6665 13.4728 14.6665 12C14.6665 10.5273 13.4726 9.33334 11.9998 9.33334C10.5271 9.33334 9.33315 10.5273 9.33315 12C9.33315 13.4728 10.5271 14.6667 11.9998 14.6667ZM23.9994 12C23.9994 13.4728 22.8055 14.6667 21.3328 14.6667C19.86 14.6667 18.6661 13.4728 18.6661 12C18.6661 10.5273 19.86 9.33334 21.3328 9.33334C22.8055 9.33334 23.9994 10.5273 23.9994 12ZM2.66667 24C4.13942 24 5.33333 22.8061 5.33333 21.3333C5.33333 19.8606 4.13942 18.6667 2.66667 18.6667C1.19391 18.6667 0 19.8606 0 21.3333C0 22.8061 1.19391 24 2.66667 24ZM14.6665 21.3333C14.6665 22.8061 13.4726 24 11.9998 24C10.5271 24 9.33315 22.8061 9.33315 21.3333C9.33315 19.8606 10.5271 18.6667 11.9998 18.6667C13.4726 18.6667 14.6665 19.8606 14.6665 21.3333ZM21.3328 24C22.8055 24 23.9994 22.8061 23.9994 21.3333C23.9994 19.8606 22.8055 18.6667 21.3328 18.6667C19.86 18.6667 18.6661 19.8606 18.6661 21.3333C18.6661 22.8061 19.86 24 21.3328 24Z" fill="#414941"/>
</svg>
