<svg width="30" height="30" viewBox="0 0 30 30" fill="none" xmlns="http://www.w3.org/2000/svg">
<circle cx="15" cy="15" r="15" fill="white"/>
<path d="M24.4417 24.8361C24.4288 24.8558 24.4224 24.8689 24.4094 24.8885C23.8278 25.8849 22.3867 26.9206 20.4479 27.7334C18.6125 28.5069 16.5962 28.9658 15.0517 28.9658C14.1405 28.9658 13.0612 28.8085 11.9238 28.5069H11.9174C11.1483 28.3037 10.3793 28.0415 9.65548 27.7334C9.19018 27.5368 8.74427 27.327 8.33713 27.1041C7.19326 26.488 6.34021 25.8062 5.85552 25.1311C5.78443 25.0327 5.71981 24.9344 5.66811 24.8361C4.80859 23.2891 5.68103 22.0043 7.93645 21.4799C8.59563 21.3291 9.33882 21.2505 10.1531 21.2505C12.6282 21.2505 14.0823 21.7749 14.7221 22.083C14.8126 22.1223 14.9289 22.1485 15.0517 22.1485C15.1745 22.1485 15.2908 22.1223 15.3813 22.083C15.8013 21.8798 16.5445 21.5979 17.669 21.4209C18.3734 21.3095 19.1425 21.2505 19.9567 21.2505C21.0812 21.2505 22.0958 21.4013 22.8972 21.6962C23.2849 21.8339 23.6145 22.0043 23.8924 22.201C24.1962 22.4173 24.4288 22.6664 24.571 22.9417C24.8747 23.4989 24.8295 24.1347 24.4417 24.8361Z" fill="#DE0040"/>
<path d="M7.5164 20.5097C8.21435 20.3524 8.98985 20.2541 9.84291 20.2541C12.4408 20.2541 13.966 20.8374 14.6446 21.1849C14.735 21.2308 14.8578 21.257 14.9935 21.257C15.1228 21.257 15.2456 21.2308 15.3425 21.1849C15.7884 20.9554 16.5639 20.6474 17.7466 20.4441C18.4898 20.3196 19.2976 20.2541 20.1506 20.2541C21.3268 20.2541 22.3996 20.4245 23.2397 20.7457C23.6469 20.903 24.2414 21.1914 24.5258 21.4143C24.8489 21.6568 25.2302 22.0698 25.3917 22.3713C25.7213 22.9941 25.773 23.8724 25.4111 24.6328C27.6213 22.1288 28.9655 18.8251 28.9655 15.2001C28.9526 7.37339 22.7033 1.03467 14.9935 1.03467C7.28375 1.03467 1.03448 7.37339 1.03448 15.1936C1.03448 18.8054 2.36576 22.1026 4.56302 24.6C3.70997 22.8892 4.98955 21.0734 7.5164 20.5097ZM14.9935 8.2911C17.5979 8.2911 19.7112 10.4346 19.7112 13.0763C19.7112 15.718 17.5979 17.8615 14.9935 17.8615C12.3891 17.8615 10.2759 15.718 10.2759 13.0763C10.2759 10.4346 12.3891 8.2911 14.9935 8.2911Z" fill="#006D3A"/>
<path d="M17.5398 10.795C17.333 10.5853 16.9775 10.5853 16.7643 10.795L14.2891 13.2925L13.2228 12.1978C13.016 11.988 12.6606 11.988 12.4473 12.1978L12.0208 12.637C11.814 12.8467 11.814 13.2073 12.0208 13.4236L13.9078 15.3573C14.1146 15.5671 14.4701 15.5671 14.6833 15.3573L15.1163 14.9181C15.1357 14.8985 15.1551 14.8723 15.1745 14.846L17.9727 12.0208C18.1795 11.811 18.1795 11.4505 17.9727 11.2342L17.5398 10.795Z" fill="#006D3A"/>
</svg>
