<svg width="23" height="20" viewBox="0 0 23 20" fill="none" xmlns="http://www.w3.org/2000/svg">
<path d="M7.66667 18.75V16.25H23V18.75H7.66667ZM7.66667 11.25V8.75H23V11.25H7.66667ZM7.66667 3.75V1.25H23V3.75H7.66667ZM2.55556 20C1.85278 20 1.25116 19.7552 0.750695 19.2656C0.250232 18.776 0 18.1875 0 17.5C0 16.8125 0.250232 16.224 0.750695 15.7344C1.25116 15.2448 1.85278 15 2.55556 15C3.25833 15 3.85995 15.2448 4.36042 15.7344C4.86088 16.224 5.11111 16.8125 5.11111 17.5C5.11111 18.1875 4.86088 18.776 4.36042 19.2656C3.85995 19.7552 3.25833 20 2.55556 20ZM2.55556 12.5C1.85278 12.5 1.25116 12.2552 0.750695 11.7656C0.250232 11.276 0 10.6875 0 10C0 9.3125 0.250232 8.72396 0.750695 8.23438C1.25116 7.74479 1.85278 7.5 2.55556 7.5C3.25833 7.5 3.85995 7.74479 4.36042 8.23438C4.86088 8.72396 5.11111 9.3125 5.11111 10C5.11111 10.6875 4.86088 11.276 4.36042 11.7656C3.85995 12.2552 3.25833 12.5 2.55556 12.5ZM2.55556 5C1.85278 5 1.25116 4.75521 0.750695 4.26562C0.250232 3.77604 0 3.1875 0 2.5C0 1.8125 0.250232 1.22396 0.750695 0.734375C1.25116 0.244792 1.85278 0 2.55556 0C3.25833 0 3.85995 0.244792 4.36042 0.734375C4.86088 1.22396 5.11111 1.8125 5.11111 2.5C5.11111 3.1875 4.86088 3.77604 4.36042 4.26562C3.85995 4.75521 3.25833 5 2.55556 5Z" fill="#414941"/>
</svg>
