<svg width="17" height="24" viewBox="0 0 17 24" fill="none" xmlns="http://www.w3.org/2000/svg">
<path d="M8.34783 16.5C10.8617 16.5 12.9012 14.5312 12.9012 12V4.5C12.9012 2.01562 10.8617 0 8.34783 0C5.78656 0 3.79447 2.01562 3.79447 4.5V12C3.79447 14.4844 5.78656 16.5 8.34783 16.5ZM15.5573 9C14.8933 9 14.419 9.51562 14.419 10.125V12C14.419 15.4688 11.4783 18.2344 7.92095 18C4.79051 17.8125 2.27668 14.9062 2.27668 11.7656V10.125C2.27668 9.51562 1.75494 9 1.13834 9C0.474308 9 0 9.51562 0 10.125V11.625C0 15.7969 2.98814 19.5469 7.20949 20.1094V21.75H5.31225C4.41107 21.75 3.74704 22.5 3.79447 23.3438C3.79447 23.7188 4.12648 24 4.55336 24H12.1423C12.5217 24 12.8538 23.7188 12.8538 23.3438C12.9012 22.5 12.2372 21.75 11.3834 21.75H9.48617V20.2031C13.5178 19.6406 16.6957 16.1719 16.6957 12V10.125C16.6957 9.51562 16.1739 9 15.5573 9Z" fill="#414941"/>
</svg>
