<svg width="32" height="26" viewBox="0 0 32 26" fill="none" xmlns="http://www.w3.org/2000/svg">
<rect width="32" height="26" rx="3" fill="#D1E8FF"/>
<path d="M22 14V12H26V14H22ZM23.2 21L20 18.6L21.2 17L24.4 19.4L23.2 21ZM21.2 9L20 7.4L23.2 5L24.4 6.6L21.2 9ZM9 20V16H8C7.45 16 6.97917 15.8042 6.5875 15.4125C6.19583 15.0208 6 14.55 6 14V12C6 11.45 6.19583 10.9792 6.5875 10.5875C6.97917 10.1958 7.45 10 8 10H12L17 7V19L12 16H11V20H9ZM18 16.35V9.65C18.45 10.05 18.8125 10.5375 19.0875 11.1125C19.3625 11.6875 19.5 12.3167 19.5 13C19.5 13.6833 19.3625 14.3125 19.0875 14.8875C18.8125 15.4625 18.45 15.95 18 16.35ZM8 12V14H12.55L15 15.45V10.55L12.55 12H8Z" fill="#298EF2"/>
</svg>
