<svg width="28" height="24" viewBox="0 0 28 24" fill="none" xmlns="http://www.w3.org/2000/svg">
<path fill-rule="evenodd" clip-rule="evenodd" d="M22.5873 11.5358L27.2775 6.61059C27.6586 6.2412 27.6586 5.59476 27.2775 5.22537L22.5873 0.300132C22.2355 -0.100044 21.6199 -0.100044 21.2681 0.300132C20.887 0.669524 20.887 1.31596 21.2681 1.68535L24.3461 4.91754H15.376C14.8483 4.91754 14.4379 5.37928 14.4379 5.90259C14.4379 6.45668 14.8483 6.88763 15.376 6.88763H24.3461L21.2681 10.1506C20.887 10.52 20.887 11.1664 21.2681 11.5358C21.444 11.7205 21.6785 11.8129 21.9423 11.8129C22.1769 11.8129 22.4114 11.7205 22.5873 11.5358ZM22.4721 22.8464L23.5796 18.1858C23.718 17.5398 23.3489 16.8477 22.749 16.5247L17.7193 14.3559C17.1194 14.1252 16.4273 14.3097 16.0581 14.7712L14.0278 17.263C10.7977 15.6941 8.21364 13.11 6.64474 9.92607L9.13652 7.89573C9.6441 7.52658 9.78253 6.83442 9.55181 6.23454L7.38304 1.20485C7.10618 0.604973 6.41402 0.235821 5.768 0.374253L1.10746 1.48171C0.415296 1.62014 0 2.17387 0 2.86603C0 14.4943 9.45952 23.9538 21.0878 24C21.78 24 22.3337 23.5386 22.4721 22.8464Z" fill="#C1C9BF"/>
</svg>
