<svg width="42" height="18" viewBox="0 0 42 18" fill="none" xmlns="http://www.w3.org/2000/svg">
<path d="M3.96209 16.5338L0.565387 11.0142C0.0359656 10.2194 0.12528 9.24733 0.788673 8.58393C11.9778 -2.51692 30.0928 -2.5346 41.2161 8.58865C41.8782 9.25075 42.0098 10.1785 41.4789 10.9743L38.0714 16.5005C37.5846 17.2521 36.5681 17.5623 35.7289 17.2539L28.8391 14.5213C28.0441 14.1686 27.5147 13.3738 27.6481 12.5342L28.0941 8.20381C23.5448 6.66185 18.5963 6.66668 13.9997 8.26176L14.4373 12.5913C14.5249 13.3865 14.0381 14.2264 13.2424 14.5807L6.34719 17.3267C5.46327 17.5927 4.44736 17.2844 3.96209 16.5338Z" fill="white"/>
</svg>
