<svg width="32" height="32" viewBox="0 0 32 32" fill="none" xmlns="http://www.w3.org/2000/svg">
<path d="M31.9606 24.1347L30.4595 30.4394C30.2719 31.3758 29.5213 32 28.5832 32C12.8218 31.9376 0 19.1408 0 3.41017C0 2.47382 0.562907 1.72474 1.50109 1.53747L7.81815 0.0393122C8.69379 -0.147957 9.63196 0.351428 10.0072 1.16293L12.9469 7.96706C13.2596 8.77856 13.072 9.71491 12.384 10.2143L9.00651 12.9609C11.133 17.2681 14.6356 20.7638 19.0137 22.8862L21.7657 19.5154C22.2661 18.8911 23.2043 18.6414 24.0174 18.9535L30.8348 21.8874C31.6479 22.3244 32.1482 23.2607 31.9606 24.1347Z" fill="white"/>
</svg>
