<svg width="22" height="18" viewBox="0 0 22 18" fill="none" xmlns="http://www.w3.org/2000/svg">
<path d="M1 6V2C1 1.45 1.19583 0.979167 1.5875 0.5875C1.97917 0.195833 2.45 0 3 0H19C19.55 0 20.0208 0.195833 20.4125 0.5875C20.8042 0.979167 21 1.45 21 2V6H19V2H3V6H1ZM3 15C2.45 15 1.97917 14.8042 1.5875 14.4125C1.19583 14.0208 1 13.55 1 13V8H3V13H19V8H21V13C21 13.55 20.8042 14.0208 20.4125 14.4125C20.0208 14.8042 19.55 15 19 15H3ZM0 18V16H22V18H0ZM1 8V6H7C7.18333 6 7.35833 6.05 7.525 6.15C7.69167 6.25 7.81667 6.38333 7.9 6.55L9.075 8.875L12.15 3.5C12.2333 3.35 12.35 3.22917 12.5 3.1375C12.65 3.04583 12.8167 3 13 3C13.1833 3 13.3583 3.04583 13.525 3.1375C13.6917 3.22917 13.8167 3.36667 13.9 3.55L15.125 6H21V8H14.5C14.3167 8 14.1417 7.95417 13.975 7.8625C13.8083 7.77083 13.6833 7.63333 13.6 7.45L12.95 6.125L9.875 11.5C9.79167 11.6667 9.66667 11.7917 9.5 11.875C9.33333 11.9583 9.15833 12 8.975 12C8.79167 12 8.62083 11.95 8.4625 11.85C8.30417 11.75 8.18333 11.6167 8.1 11.45L6.375 8H1Z" fill="#191C19"/>
</svg>
