<svg width="30" height="24" viewBox="0 0 30 24" fill="none" xmlns="http://www.w3.org/2000/svg">
<path d="M14.6208 15C17.2792 15 19.3875 12.8438 19.3875 10.125C19.3875 7.45312 17.2333 5.25 14.6208 5.25C12.0083 5.25 9.9 7.45312 9.9 10.125C9.85417 12.8438 12.0083 15 14.6208 15ZM16.9125 16.5H12.375C8.75417 16.5 5.86667 19.3125 5.86667 22.7812C5.86667 23.4844 6.41667 24 7.15 24H22.1375C22.8708 24 23.4667 23.4844 23.4667 22.7812C23.4667 19.3125 20.5333 16.5 16.9125 16.5ZM23.4667 7.5C25.4833 7.5 27.1333 5.85938 27.1333 3.75C27.1333 1.6875 25.4833 0 23.4667 0C21.4042 0 19.8 1.6875 19.8 3.75C19.8 5.85938 21.4042 7.5 23.4667 7.5ZM8.3875 10.125C8.3875 9.89062 8.43333 9.65625 8.47917 9.42188C7.975 9.14062 7.425 9 6.82917 9H4.03333C1.7875 9 0 10.9688 0 13.4062C0 13.875 0.320833 14.25 0.779167 14.25H9.94583C8.98333 13.1719 8.3875 11.7188 8.3875 10.125ZM5.86667 7.5C7.88333 7.5 9.53333 5.85938 9.53333 3.75C9.53333 1.6875 7.88333 0 5.86667 0C3.80417 0 2.2 1.6875 2.2 3.75C2.2 5.85938 3.80417 7.5 5.86667 7.5ZM25.2542 9H22.4583C21.8625 9 21.3125 9.1875 20.8083 9.42188C20.8083 9.65625 20.8542 9.89062 20.8542 10.125C20.8542 11.7188 20.3042 13.1719 19.3417 14.25H28.5083C28.9667 14.25 29.3333 13.875 29.3333 13.4062C29.3333 10.9688 27.5 9 25.2542 9Z" fill="#C1C9BF"/>
</svg>
