<svg width="32" height="26" viewBox="0 0 32 26" fill="none" xmlns="http://www.w3.org/2000/svg">
<rect width="32" height="26" rx="3" fill="#FFE4E4"/>
<path d="M20.5494 12.7188C19.5409 12.7205 18.5743 13.1219 17.8612 13.8349C17.1481 14.548 16.7467 15.5147 16.745 16.5231C16.7467 17.5316 17.1481 18.4982 17.8612 19.2113C18.5743 19.9244 19.5409 20.3258 20.5494 20.3275C21.5578 20.3258 22.5245 19.9244 23.2376 19.2113C23.9507 18.4982 24.352 17.5316 24.3538 16.5231C24.352 15.5147 23.9507 14.548 23.2376 13.8349C22.5245 13.1219 21.5578 12.7205 20.5494 12.7188ZM20.5494 19.3419C19.8023 19.3402 19.0864 19.0427 18.5581 18.5144C18.0299 17.9862 17.7323 17.2702 17.7306 16.5231C17.7323 15.7761 18.0299 15.0601 18.5581 14.5319C19.0864 14.0036 19.8023 13.7061 20.5494 13.7043C21.2964 13.7061 22.0124 14.0036 22.5407 14.5319C23.0689 15.0601 23.3664 15.7761 23.3682 16.5231C23.3664 17.2702 23.0689 17.9862 22.5407 18.5144C22.0124 19.0427 21.2964 19.3402 20.5494 19.3419Z" fill="#EB0C0C"/>
<path d="M22.4083 14.9862L22.3596 14.9488C22.2633 14.8835 22.1466 14.8555 22.0311 14.8699C21.9679 14.8772 21.9067 14.8969 21.8511 14.9279C21.7955 14.9589 21.7466 15.0006 21.7072 15.0506L20.1545 17.0218L19.1906 16.1676C19.1433 16.125 19.088 16.0923 19.0278 16.0714C18.9677 16.0505 18.9039 16.0419 18.8404 16.0461C18.7768 16.0497 18.7146 16.0659 18.6573 16.0938C18.6 16.1217 18.5488 16.1606 18.5066 16.2083C18.4217 16.3046 18.3782 16.4305 18.3857 16.5586C18.3932 16.6867 18.4511 16.8067 18.5467 16.8923L19.9246 18.1013L20.1664 18.2052H20.2321C20.2479 18.2055 20.2638 18.2041 20.2794 18.2012L22.4621 15.6656C22.5438 15.5678 22.584 15.4419 22.5739 15.3149C22.5638 15.1879 22.5044 15.0699 22.4083 14.9862Z" fill="#EB0C0C"/>
<path d="M14.289 8.72949H12.9749V10.0436H14.289V8.72949Z" fill="#EB0C0C"/>
<path d="M14.289 11.3574H12.9749V12.6715H14.289V11.3574Z" fill="#EB0C0C"/>
<path d="M14.2889 13.9858H12.9748V14.9668H9.34258C9.32661 14.9371 9.31784 14.904 9.31696 14.8702V12.7492C9.76222 12.6055 10.1518 12.3269 10.4316 11.9519C10.7115 11.577 10.8677 11.1242 10.8788 10.6565C10.8677 10.1888 10.7114 9.7362 10.4315 9.36135C10.1517 8.9865 9.76217 8.70798 9.31696 8.56441V6.52752C9.31553 6.46142 9.32103 6.39535 9.33338 6.3304C9.40763 6.3212 9.5351 6.32317 9.65666 6.3212H12.9748V7.30154H14.2889V6.3212H22.7407V8.55521C22.3925 8.66803 22.0778 8.86559 21.8248 9.13014C21.621 9.34052 21.461 9.58932 21.3542 9.86207C21.2473 10.1348 21.1958 10.4261 21.2025 10.7189L21.2058 10.7846C21.1966 11.0665 21.2475 11.347 21.3553 11.6076C21.463 11.8682 21.6251 12.1029 21.8307 12.2959C22.4318 12.7618 23.187 12.9827 23.9445 12.9142L23.8295 11.6046C23.436 11.6412 23.0419 11.5422 22.7125 11.3241C22.6414 11.2546 22.5868 11.1701 22.5527 11.0767C22.5185 10.9834 22.5058 10.8835 22.5153 10.7846L22.5121 10.6926C22.5093 10.5728 22.5305 10.4537 22.5742 10.3421C22.618 10.2305 22.6835 10.1288 22.767 10.0428C22.8498 9.95654 22.9489 9.88752 23.0585 9.83971C23.1681 9.79189 23.2861 9.76623 23.4057 9.7642L24.0502 9.75172V6.37311C24.0545 6.31822 24.0545 6.26308 24.0502 6.20819C24.0407 6.04069 23.998 5.87677 23.9247 5.72587C23.8514 5.57497 23.7489 5.44009 23.6232 5.32904C23.3813 5.11023 23.0633 4.99509 22.7374 5.00839H9.61592C9.3982 4.98625 9.17824 5.00805 8.9691 5.07249C8.75996 5.13694 8.56588 5.24273 8.39839 5.38358C8.25855 5.53743 8.15148 5.71813 8.0837 5.91468C8.01593 6.11123 7.98886 6.31952 8.00415 6.52686L8.00875 9.60454L8.54622 9.70441C8.65004 9.72412 9.56598 9.91533 9.56598 10.6591C9.56598 11.4029 8.64873 11.5928 8.5482 11.6086L8.00283 11.7025V14.8676C7.98881 15.2141 8.10741 15.5529 8.33448 15.815C8.56155 16.0771 8.88 16.2428 9.22497 16.2783H16.1287V14.9642H14.2889V13.9858Z" fill="#EB0C0C"/>
</svg>
