<svg width="20" height="18" viewBox="0 0 20 18" fill="none" xmlns="http://www.w3.org/2000/svg">
<path d="M15.1347 9.06445C13.9505 9.06649 12.8153 9.53784 11.9779 10.3752C11.1405 11.2126 10.6692 12.3478 10.6671 13.5321C10.6692 14.7164 11.1405 15.8515 11.9779 16.6889C12.8153 17.5263 13.9505 17.9977 15.1347 17.9997C16.319 17.9977 17.4542 17.5263 18.2916 16.6889C19.129 15.8515 19.6003 14.7164 19.6024 13.5321C19.6003 12.3478 19.129 11.2126 18.2916 10.3752C17.4542 9.53784 16.319 9.06649 15.1347 9.06445ZM15.1347 16.8423C14.2575 16.8403 13.4167 16.4909 12.7963 15.8705C12.176 15.2502 11.8266 14.4094 11.8245 13.5321C11.8266 12.6548 12.176 11.814 12.7963 11.1937C13.4167 10.5733 14.2575 10.2239 15.1347 10.2219C16.012 10.2239 16.8528 10.5733 17.4732 11.1937C18.0935 11.814 18.4429 12.6548 18.445 13.5321C18.4429 14.4094 18.0935 15.2502 17.4732 15.8705C16.8528 16.4909 16.012 16.8403 15.1347 16.8423Z" fill="#191C19"/>
<path d="M17.3176 11.7278L17.2605 11.6839C17.1474 11.6072 17.0102 11.5743 16.8747 11.5913C16.8004 11.5998 16.7285 11.6229 16.6632 11.6593C16.598 11.6957 16.5405 11.7447 16.4943 11.8035L14.6709 14.1183L13.539 13.1152C13.4834 13.0652 13.4184 13.0268 13.3478 13.0022C13.2772 12.9777 13.2023 12.9676 13.1277 12.9724C13.053 12.9768 12.9799 12.9958 12.9127 13.0285C12.8454 13.0612 12.7853 13.107 12.7357 13.163C12.636 13.276 12.5849 13.4239 12.5938 13.5744C12.6026 13.7248 12.6705 13.8657 12.7828 13.9663L14.4009 15.3861L14.6848 15.508H14.762C14.7806 15.5083 14.7992 15.5068 14.8175 15.5033L17.3808 12.5257C17.4768 12.4109 17.5239 12.263 17.5121 12.1138C17.5003 11.9647 17.4304 11.8261 17.3176 11.7278Z" fill="#191C19"/>
<path d="M7.78273 4.37988H6.2395V5.92311H7.78273V4.37988Z" fill="#191C19"/>
<path d="M7.78273 7.46582H6.2395V9.00904H7.78273V7.46582Z" fill="#191C19"/>
<path d="M7.7828 10.5524H6.23958V11.7044H1.97411C1.95535 11.6695 1.94505 11.6306 1.94401 11.591V9.10022C2.46691 8.93147 2.92437 8.60426 3.25299 8.16392C3.58162 7.72358 3.76515 7.19193 3.77814 6.64264C3.7651 6.09344 3.58155 5.5619 3.25291 5.1217C2.92428 4.68149 2.46685 4.35442 1.94401 4.18582V1.79383C1.94233 1.7162 1.9488 1.63862 1.9633 1.56234C2.0505 1.55154 2.20019 1.55385 2.34294 1.55153H6.23958V2.70278H7.7828V1.55153H17.708V4.17502C17.2991 4.30751 16.9295 4.53951 16.6324 4.85018C16.3931 5.09724 16.2052 5.38941 16.0798 5.70971C15.9543 6.03001 15.8938 6.37204 15.9017 6.71594L15.9056 6.79309C15.8947 7.12407 15.9545 7.45356 16.0811 7.75959C16.2076 8.06561 16.3979 8.34115 16.6394 8.56781C17.3452 9.115 18.2322 9.37444 19.1216 9.29389L18.9866 7.75607C18.5246 7.79902 18.0618 7.68278 17.6749 7.4266C17.5914 7.34502 17.5273 7.24576 17.4872 7.13613C17.4471 7.02649 17.4322 6.90927 17.4434 6.79309L17.4395 6.68507C17.4363 6.54437 17.4611 6.40445 17.5125 6.27343C17.5639 6.14242 17.6409 6.02293 17.7389 5.92195C17.8362 5.82065 17.9525 5.7396 18.0812 5.68345C18.21 5.62731 18.3485 5.59717 18.4889 5.59478L19.2459 5.58013V1.6125C19.2509 1.54804 19.2509 1.48328 19.2459 1.41882C19.2346 1.22213 19.1845 1.02962 19.0984 0.852413C19.0124 0.675205 18.892 0.516812 18.7443 0.386403C18.4603 0.129451 18.0868 -0.00576697 17.7042 0.00985149H2.2951C2.03942 -0.0161519 1.78112 0.00945096 1.53551 0.0851336C1.28991 0.160816 1.062 0.285049 0.8653 0.450453C0.701081 0.631128 0.575349 0.843322 0.495757 1.07414C0.416165 1.30495 0.384379 1.54956 0.402333 1.79305L0.407734 5.40729L1.03891 5.52457C1.16083 5.54771 2.23645 5.77226 2.23645 6.64572C2.23645 7.51919 1.15928 7.74219 1.04123 7.76071L0.40079 7.87104V11.5879C0.384316 11.9948 0.523595 12.3927 0.790252 12.7005C1.05691 13.0083 1.43088 13.2029 1.83599 13.2445H9.94332V11.7013H7.7828V10.5524Z" fill="#191C19"/>
</svg>
