<svg width="17" height="17" viewBox="0 0 17 17" fill="none" xmlns="http://www.w3.org/2000/svg">
<path d="M8.5 0C10.1811 0 11.8245 0.498516 13.2223 1.43251C14.6202 2.3665 15.7096 3.69402 16.353 5.24719C16.9963 6.80036 17.1646 8.50943 16.8367 10.1583C16.5087 11.8071 15.6992 13.3217 14.5104 14.5104C13.3217 15.6992 11.8071 16.5087 10.1583 16.8367C8.50943 17.1646 6.80036 16.9963 5.24719 16.353C3.69402 15.7096 2.3665 14.6202 1.43251 13.2223C0.498516 11.8245 0 10.1811 0 8.5C0.00264654 6.24647 0.89903 4.086 2.49252 2.49252C4.086 0.89903 6.24647 0.00264654 8.5 0ZM8.5 16C9.98336 16 11.4334 15.5601 12.6668 14.736C13.9001 13.9119 14.8614 12.7406 15.4291 11.3701C15.9968 9.99968 16.1453 8.49168 15.8559 7.03682C15.5665 5.58197 14.8522 4.24559 13.8033 3.1967C12.7544 2.14781 11.418 1.4335 9.96318 1.14411C8.50832 0.854721 7.00032 1.00325 5.62987 1.5709C4.25943 2.13856 3.08809 3.09985 2.26398 4.33322C1.43987 5.56659 1 7.01664 1 8.5C1.00238 10.4884 1.79332 12.3947 3.19933 13.8007C4.60534 15.2067 6.51161 15.9976 8.5 16Z" fill="#191C19"/>
<path d="M8.12909 9.90331L4.13909 5.91331C4.09024 5.8766 4.05059 5.82903 4.02328 5.77436C3.99598 5.71969 3.98176 5.65942 3.98176 5.59831C3.98176 5.5372 3.99598 5.47693 4.02328 5.42226C4.05059 5.36759 4.09024 5.32002 4.13909 5.28331C4.1758 5.23445 4.22337 5.1948 4.27804 5.1675C4.33271 5.14019 4.39298 5.12598 4.45409 5.12598C4.51521 5.12598 4.57548 5.14019 4.63015 5.1675C4.68482 5.1948 4.73239 5.23445 4.76909 5.28331L8.44509 8.95831L12.1201 5.28331C12.3301 5.07331 12.5401 5.17831 12.7501 5.28331C12.9601 5.49331 12.8551 5.70331 12.7501 5.91331L8.76009 9.90331C8.65509 10.1133 8.34009 10.1133 8.12909 9.90331Z" fill="#191C19"/>
<path d="M8.12909 12.7236L4.13909 8.73362C4.09024 8.69692 4.05059 8.64935 4.02328 8.59468C3.99598 8.54001 3.98176 8.47973 3.98176 8.41862C3.98176 8.35751 3.99598 8.29724 4.02328 8.24257C4.05059 8.1879 4.09024 8.14033 4.13909 8.10362C4.1758 8.05477 4.22337 8.01512 4.27804 7.98781C4.33271 7.9605 4.39298 7.94629 4.45409 7.94629C4.51521 7.94629 4.57548 7.9605 4.63015 7.98781C4.68482 8.01512 4.73239 8.05477 4.76909 8.10362L8.44509 11.7786L12.1201 8.10362C12.3301 7.89362 12.5401 7.99862 12.7501 8.10362C12.9601 8.31362 12.8551 8.52362 12.7501 8.73362L8.76009 12.7236C8.65509 12.9336 8.34009 12.9336 8.12909 12.7236Z" fill="#191C19"/>
</svg>
