<svg width="17" height="17" viewBox="0 0 17 17" fill="none" xmlns="http://www.w3.org/2000/svg">
<path d="M8.5 17C6.81886 17 5.17547 16.5015 3.77765 15.5675C2.37984 14.6335 1.29037 13.306 0.647024 11.7528C0.00367928 10.1996 -0.16465 8.49057 0.163324 6.84173C0.491299 5.19289 1.30085 3.67834 2.48959 2.48959C3.67834 1.30085 5.19289 0.491299 6.84173 0.163324C8.49057 -0.16465 10.1996 0.00367928 11.7528 0.647024C13.306 1.29037 14.6335 2.37984 15.5675 3.77765C16.5015 5.17547 17 6.81886 17 8.5C16.9974 10.7535 16.101 12.914 14.5075 14.5075C12.914 16.101 10.7535 16.9974 8.5 17ZM8.5 1C7.01664 1 5.56659 1.43987 4.33322 2.26398C3.09985 3.08809 2.13856 4.25943 1.5709 5.62987C1.00325 7.00032 0.854721 8.50832 1.14411 9.96318C1.4335 11.418 2.14781 12.7544 3.1967 13.8033C4.24559 14.8522 5.58196 15.5665 7.03682 15.8559C8.49168 16.1453 9.99968 15.9968 11.3701 15.4291C12.7406 14.8614 13.9119 13.9001 14.736 12.6668C15.5601 11.4334 16 9.98336 16 8.5C15.9976 6.51161 15.2067 4.60534 13.8007 3.19933C12.3947 1.79332 10.4884 1.00238 8.5 1Z" fill="#191C19"/>
<path d="M8.87091 7.09669L12.8609 11.0867C12.9098 11.1234 12.9494 11.171 12.9767 11.2256C13.004 11.2803 13.0182 11.3406 13.0182 11.4017C13.0182 11.4628 13.004 11.5231 12.9767 11.5777C12.9494 11.6324 12.9098 11.68 12.8609 11.7167C12.8242 11.7655 12.7766 11.8052 12.722 11.8325C12.6673 11.8598 12.607 11.874 12.5459 11.874C12.4848 11.874 12.4245 11.8598 12.3699 11.8325C12.3152 11.8052 12.2676 11.7655 12.2309 11.7167L8.55491 8.04169L4.87991 11.7167C4.66991 11.9267 4.45991 11.8217 4.24991 11.7167C4.03991 11.5067 4.14491 11.2967 4.24991 11.0867L8.23991 7.09669C8.34491 6.88669 8.65991 6.88669 8.87091 7.09669Z" fill="#191C19"/>
<path d="M8.87091 4.27638L12.8609 8.26638C12.9098 8.30308 12.9494 8.35065 12.9767 8.40532C13.004 8.45999 13.0182 8.52027 13.0182 8.58138C13.0182 8.64249 13.004 8.70276 12.9767 8.75743C12.9494 8.8121 12.9098 8.85967 12.8609 8.89638C12.8242 8.94523 12.7766 8.98488 12.722 9.01219C12.6673 9.0395 12.607 9.05371 12.5459 9.05371C12.4848 9.05371 12.4245 9.0395 12.3699 9.01219C12.3152 8.98488 12.2676 8.94523 12.2309 8.89638L8.55491 5.22138L4.87991 8.89638C4.66991 9.10638 4.45991 9.00138 4.24991 8.89638C4.03991 8.68638 4.14491 8.47638 4.24991 8.26638L8.23991 4.27638C8.34491 4.06638 8.65991 4.06638 8.87091 4.27638Z" fill="#191C19"/>
</svg>
