<svg width="24" height="25" viewBox="0 0 24 25" fill="none" xmlns="http://www.w3.org/2000/svg">
<path d="M8.53498 19.5C7.83786 19.5 7.24108 19.2563 6.74465 18.7689C6.24822 18.2815 6 17.6956 6 17.0111C6 16.3267 6.24822 15.7407 6.74465 15.2533C7.24108 14.7659 7.83786 14.5222 8.53498 14.5222C9.2321 14.5222 9.82888 14.7659 10.3253 15.2533C10.8217 15.7407 11.07 16.3267 11.07 17.0111C11.07 17.6956 10.8217 18.2815 10.3253 18.7689C9.82888 19.2563 9.2321 19.5 8.53498 19.5ZM16.2984 19.5C15.6012 19.5 15.0045 19.2563 14.508 18.7689C14.0116 18.2815 13.7634 17.6956 13.7634 17.0111C13.7634 16.3267 14.0116 15.7407 14.508 15.2533C15.0045 14.7659 15.6012 14.5222 16.2984 14.5222C16.9955 14.5222 17.5923 14.7659 18.0887 15.2533C18.5851 15.7407 18.8333 16.3267 18.8333 17.0111C18.8333 17.6956 18.5851 18.2815 18.0887 18.7689C17.5923 19.2563 16.9955 19.5 16.2984 19.5ZM8.53498 10.4778C7.83786 10.4778 7.24108 10.2341 6.74465 9.74667C6.24822 9.25926 6 8.67333 6 7.98889C6 7.30444 6.24822 6.71852 6.74465 6.23111C7.24108 5.7437 7.83786 5.5 8.53498 5.5C9.2321 5.5 9.82888 5.7437 10.3253 6.23111C10.8217 6.71852 11.07 7.30444 11.07 7.98889C11.07 8.67333 10.8217 9.25926 10.3253 9.74667C9.82888 10.2341 9.2321 10.4778 8.53498 10.4778ZM16.2984 10.4778C15.6012 10.4778 15.0045 10.2341 14.508 9.74667C14.0116 9.25926 13.7634 8.67333 13.7634 7.98889C13.7634 7.30444 14.0116 6.71852 14.508 6.23111C15.0045 5.7437 15.6012 5.5 16.2984 5.5C16.9955 5.5 17.5923 5.7437 18.0887 6.23111C18.5851 6.71852 18.8333 7.30444 18.8333 7.98889C18.8333 8.67333 18.5851 9.25926 18.0887 9.74667C17.5923 10.2341 16.9955 10.4778 16.2984 10.4778Z" fill="#5F7D95"/>
</svg>
