<svg width="19" height="21" viewBox="0 0 19 21" fill="none" xmlns="http://www.w3.org/2000/svg">
<path d="M9.33705 20.75C10.0001 20.75 10.636 20.4866 11.1048 20.0178C11.5737 19.5489 11.8371 18.913 11.8371 18.25H6.83705C6.83705 18.913 7.10045 19.5489 7.56929 20.0178C8.03813 20.4866 8.67401 20.75 9.33705 20.75ZM17.7508 14.9025C16.9958 14.0913 15.5871 12.875 15.5871 8.875C15.588 7.44103 15.0894 6.05151 14.1769 4.94533C13.2644 3.83916 11.9951 3.08543 10.5871 2.81375V2C10.5871 1.66848 10.4554 1.35054 10.2209 1.11612C9.98652 0.881696 9.66857 0.75 9.33705 0.75C9.00553 0.75 8.68759 0.881696 8.45317 1.11612C8.21875 1.35054 8.08705 1.66848 8.08705 2V2.81375C6.67905 3.08543 5.40969 3.83916 4.49719 4.94533C3.58469 6.05151 3.08607 7.44103 3.08705 8.875C3.08705 12.875 1.6783 14.0913 0.923303 14.9025C0.705901 15.1309 0.585394 15.4347 0.587053 15.75C0.587053 16.0815 0.718749 16.3995 0.95317 16.6339C1.18759 16.8683 1.50553 17 1.83705 17H16.8371C17.1686 17 17.4865 16.8683 17.7209 16.6339C17.9554 16.3995 18.0871 16.0815 18.0871 15.75C18.0887 15.4347 17.9682 15.1309 17.7508 14.9025Z" fill="white"/>
</svg>
